<svg xmlns="http://www.w3.org/2000/svg" width="258" height="226" viewBox="0 0 258 226" version="1.1">
	<path d="M 116.500 16.328 C 114.850 16.975, 112.150 18.262, 110.500 19.187 C 105.297 22.104, 34.434 94.020, 31.855 99 C 29.949 102.680, 29.524 105.049, 29.526 112 C 29.528 119.277, 29.910 121.220, 32.185 125.500 C 34.075 129.057, 45.615 141.214, 72.171 167.624 C 107.214 202.475, 109.867 204.885, 115.500 206.973 C 122.598 209.606, 132.134 209.407, 138.535 206.493 C 144.467 203.793, 216.318 132.114, 219.722 125.500 C 223.171 118.800, 223.891 109.240, 221.500 101.884 C 219.874 96.881, 217.090 93.823, 182.125 58.639 C 139.652 15.899, 138.407 14.933, 126 15.077 C 122.425 15.118, 118.150 15.681, 116.500 16.328 M 121.500 34.441 C 117.435 36.286, 49.367 104.763, 48.034 108.347 C 45.606 114.878, 46.684 116.230, 84.229 153.703 C 103.628 173.065, 120.781 189.383, 122.347 189.966 C 128.899 192.402, 130.191 191.367, 168.151 153.275 C 205.684 115.611, 206.356 114.770, 203.995 108.424 C 202.568 104.591, 134.500 36.235, 130.282 34.400 C 126.362 32.694, 125.335 32.699, 121.500 34.441" stroke="none" fill="#4ef4b7" fill-rule="evenodd"/>
</svg>